<?xml version="1.0" encoding="UTF-8" standalone="no"?>
<svg
   xmlns:dc="http://purl.org/dc/elements/1.1/"
   xmlns:cc="http://creativecommons.org/ns#"
   xmlns:rdf="http://www.w3.org/1999/02/22-rdf-syntax-ns#"
   xmlns:svg="http://www.w3.org/2000/svg"
   xmlns="http://www.w3.org/2000/svg"
   xmlns:sodipodi="http://sodipodi.sourceforge.net/DTD/sodipodi-0.dtd"
   xmlns:inkscape="http://www.inkscape.org/namespaces/inkscape"
   inkscape:version="1.0 (4035a4fb49, 2020-05-01)"
   sodipodi:docname="Alphabet Tiles.svg"
   id="svg6"
   version="1.1"
   fill="none"
   viewBox="0.0 0.0 348.0 348.0">
  <metadata
     id="metadata12">
    <rdf:RDF>
      <cc:Work
         rdf:about="">
        <dc:format>image/svg+xml</dc:format>
        <dc:type
           rdf:resource="http://purl.org/dc/dcmitype/StillImage" />
      </cc:Work>
    </rdf:RDF>
  </metadata>
  <defs
     id="defs10" />
  <sodipodi:namedview
     inkscape:current-layer="svg6"
     inkscape:window-maximized="1"
     inkscape:window-y="-8"
     inkscape:window-x="-8"
     inkscape:cy="174"
     inkscape:cx="174"
     inkscape:zoom="1.5977011"
     showgrid="false"
     id="namedview8"
     inkscape:window-height="705"
     inkscape:window-width="1366"
     inkscape:pageshadow="2"
     inkscape:pageopacity="0"
     guidetolerance="10"
     gridtolerance="10"
     objecttolerance="10"
     borderopacity="1"
     bordercolor="#666666"
     pagecolor="#ffffff" />
  <path
     id="path2"
     stroke="#000"
     stroke-width="2"
     d="M5.079 5.776h336.913v337.67H5.08z" />
  <path
     id="path4"
     stroke="#000"
     stroke-width="2"
     d="M282.734 40.554c0-8.376 6.966-15.165 15.56-15.165 4.126 0 8.084 1.597 11.001 4.441 2.918 2.844 4.558 6.702 4.558 10.724 0 8.376-6.966 15.165-15.56 15.165-8.593 0-15.559-6.79-15.559-15.165z" />
  <path
     d="M 17.967918,80.624466 H 63.358852 V 126.0154 H 17.967918 Z"
     style="opacity:1;fill:#ffffff;fill-opacity:1;stroke:#000000;stroke-width:1.84861;stroke-miterlimit:4;stroke-dasharray:none;stroke-opacity:1"
     id="rect14" />
  <path
     d="m 277.22308,276.82596 h 55.05361 v 55.05361 h -55.05361 z"
     style="opacity:1;fill:#ffffff;fill-opacity:1;stroke:#000000;stroke-width:2.24214;stroke-miterlimit:4;stroke-dasharray:none;stroke-opacity:1"
     id="rect14-2-3-7-0-3-5" />
  <path
     d="m 277.22308,211.77234 h 55.05361 v 55.05361 h -55.05361 z"
     style="opacity:1;fill:#ffffff;fill-opacity:1;stroke:#000000;stroke-width:2.24214;stroke-miterlimit:4;stroke-dasharray:none;stroke-opacity:1"
     id="rect14-2-3-7-0-3-5-9" />
  <g
     style="font-size:74.7614px;line-height:1.25;font-family:Arcade;-inkscape-font-specification:Arcade;letter-spacing:0px;word-spacing:0px;writing-mode:lr-tb;fill:#000000;stroke-width:3.50445"
     id="text1004"
     aria-label="E">
    <path
       id="path1656"
       style="stroke-width:3.50445"
       d="m 23.759743,105.69798 h 4.186638 v 4.18664 h -4.186638 z m 4.934252,0 h 4.186638 v 4.18664 h -4.186638 z m -4.934252,4.93425 h 4.186638 v 4.18664 h -4.186638 z m 4.934252,0 h 4.186638 v 4.18664 h -4.186638 z m -4.934252,4.93426 h 4.186638 v 4.18664 h -4.186638 z m 4.934252,0 h 4.186638 v 4.18664 h -4.186638 z m 4.934252,0 h 4.186639 v 4.18664 h -4.186639 z m 4.934253,0 h 4.186638 v 4.18664 H 38.5625 Z m 5.009013,0 h 4.186639 v 4.18664 h -4.186639 z m 4.934253,0 h 4.186638 v 4.18664 h -4.186638 z m 4.934252,0 h 4.186638 v 4.18664 H 53.440018 Z M 23.759743,85.886212 h 4.186638 v 4.186638 h -4.186638 z m 4.934252,0 h 4.186638 v 4.186638 h -4.186638 z m 4.934252,0 h 4.186639 v 4.186638 h -4.186639 z m 4.934253,0 h 4.186638 V 90.07285 H 38.5625 Z m 5.009013,0 h 4.186639 v 4.186638 h -4.186639 z m 4.934253,0 h 4.186638 v 4.186638 h -4.186638 z m 4.934252,0 h 4.186638 v 4.186638 h -4.186638 z m -29.680275,4.934252 h 4.186638 v 4.186639 h -4.186638 z m 4.934252,0 h 4.186638 v 4.186639 h -4.186638 z m -4.934252,4.934253 h 4.186638 v 4.186638 h -4.186638 z m 4.934252,0 h 4.186638 v 4.186638 h -4.186638 z m -4.934252,4.934253 h 4.186638 v 4.18664 h -4.186638 z m 4.934252,0 h 4.186638 v 4.18664 h -4.186638 z m 4.934252,0 h 4.186639 v 4.18664 h -4.186639 z m 4.934253,0 h 4.186638 v 4.18664 H 38.5625 Z m 5.009013,0 h 4.186639 v 4.18664 h -4.186639 z m 4.934253,0 h 4.186638 v 4.18664 h -4.186638 z" />
  </g>
  <path
     d="M 69.433968,80.624458 H 114.8249 V 126.01539 H 69.433968 Z"
     style="opacity:1;fill:#ffffff;fill-opacity:1;stroke:#000000;stroke-width:1.84861;stroke-miterlimit:4;stroke-dasharray:none;stroke-opacity:1"
     id="rect14-2" />
  <g
     style="font-size:74.7614px;line-height:1.25;font-family:Arcade;-inkscape-font-specification:Arcade;letter-spacing:0px;word-spacing:0px;writing-mode:lr-tb;fill:#000000;stroke-width:3.50445"
     id="text1004-4"
     aria-label="Q">
    <path
       id="path1652"
       style="stroke-width:3.50445"
       d="m 75.225784,105.69797 h 4.186639 v 4.18664 h -4.186639 z m 4.934253,0 h 4.186638 v 4.18664 h -4.186638 z m 9.868504,0 h 4.186638 v 4.18664 h -4.186638 z m 5.009014,0 h 4.186638 v 4.18664 h -4.186638 z m 4.934252,0 h 4.186643 v 4.18664 h -4.186643 z m 4.934253,0 h 4.18664 v 4.18664 h -4.18664 z m -29.680276,4.93425 h 4.186639 v 4.18664 h -4.186639 z m 4.934253,0 h 4.186638 v 4.18664 h -4.186638 z m 14.877518,0 h 4.186638 v 4.18664 h -4.186638 z m 4.934252,0 h 4.186643 v 4.18664 h -4.186643 z m -19.81177,4.93425 h 4.186638 v 4.18664 h -4.186638 z m 4.934252,0 h 4.186638 v 4.18664 h -4.186638 z m 4.934252,0 h 4.186638 v 4.18664 h -4.186638 z m 9.943266,0 h 4.186643 v 4.18664 h -4.186643 z m 4.934253,0 h 4.18664 v 4.18664 h -4.18664 z M 80.160037,85.886197 h 4.186638 v 4.186638 h -4.186638 z m 4.934252,0 h 4.186638 v 4.186638 h -4.186638 z m 4.934252,0 h 4.186638 v 4.186638 h -4.186638 z m 5.009014,0 h 4.186638 v 4.186638 h -4.186638 z m 4.934252,0 h 4.186643 v 4.186638 h -4.186643 z m -24.746023,4.934252 h 4.186639 v 4.186638 h -4.186639 z m 4.934253,0 h 4.186638 v 4.186638 h -4.186638 z m 19.81177,0 h 4.186643 v 4.186638 h -4.186643 z m 4.934253,0 h 4.18664 v 4.186638 h -4.18664 z m -29.680276,4.934252 h 4.186639 v 4.186639 h -4.186639 z m 4.934253,0 h 4.186638 v 4.186639 h -4.186638 z m 19.064156,4.186639 z m 0.747614,-4.186639 h 4.186643 v 4.186639 h -4.186643 z m 4.934253,0 h 4.18664 v 4.186639 h -4.18664 z m -29.680276,4.934249 h 4.186639 v 4.18664 h -4.186639 z m 4.934253,0 h 4.186638 v 4.18664 h -4.186638 z m 19.064156,0 z m 0.747614,0 h 4.186643 v 4.18664 h -4.186643 z m 4.934253,0 h 4.18664 v 4.18664 h -4.18664 z" />
  </g>
  <path
     d="m 120.90002,80.624458 h 45.39093 v 45.390932 h -45.39093 z"
     style="opacity:1;fill:#ffffff;fill-opacity:1;stroke:#000000;stroke-width:1.84861;stroke-miterlimit:4;stroke-dasharray:none;stroke-opacity:1"
     id="rect14-28" />
  <g
     style="font-size:74.7614px;line-height:1.25;font-family:Arcade;-inkscape-font-specification:Arcade;letter-spacing:0px;word-spacing:0px;writing-mode:lr-tb;fill:#000000;stroke-width:3.50445"
     id="text1004-9"
     aria-label="A">
    <path
       id="path1648"
       style="stroke-width:3.50445"
       d="m 126.69185,105.69798 h 4.18664 v 4.18664 h -4.18664 z m 4.93425,0 h 4.18664 v 4.18664 h -4.18664 z m 4.93425,0 h 4.18664 v 4.18664 h -4.18664 z m 4.93426,0 h 4.18663 v 4.18664 h -4.18663 z m 5.00901,0 h 4.18664 v 4.18664 h -4.18664 z m 4.93425,0 h 4.18664 v 4.18664 h -4.18664 z m 4.93425,0 h 4.18664 v 4.18664 h -4.18664 z m -29.68027,4.93425 h 4.18664 v 4.18664 h -4.18664 z m 4.93425,0 h 4.18664 v 4.18664 h -4.18664 z m 19.81177,0 h 4.18664 v 4.18664 h -4.18664 z m 4.93425,0 h 4.18664 v 4.18664 h -4.18664 z m -29.68027,4.93426 h 4.18664 v 4.18664 h -4.18664 z m 4.93425,0 h 4.18664 v 4.18664 h -4.18664 z m 19.81177,0 h 4.18664 v 4.18664 h -4.18664 z m 4.93425,0 h 4.18664 v 4.18664 h -4.18664 z M 136.56035,85.886212 h 4.18664 v 4.186638 h -4.18664 z m 4.93426,0 h 4.18663 v 4.186638 h -4.18663 z m 5.00901,0 h 4.18664 v 4.186638 h -4.18664 z m -14.87752,4.934252 h 4.18664 v 4.186639 h -4.18664 z m 4.93425,0 h 4.18664 v 4.186639 h -4.18664 z m 9.94327,0 h 4.18664 v 4.186639 h -4.18664 z m 4.93425,0 h 4.18664 v 4.186639 h -4.18664 z m -24.74602,4.934253 h 4.18664 v 4.186638 h -4.18664 z m 4.93425,0 h 4.18664 v 4.186638 h -4.18664 z m 19.81177,0 h 4.18664 v 4.186638 h -4.18664 z m 4.93425,0 h 4.18664 v 4.186638 h -4.18664 z m -29.68027,4.934253 h 4.18664 v 4.18664 h -4.18664 z m 4.93425,0 h 4.18664 v 4.18664 h -4.18664 z m 19.81177,0 h 4.18664 v 4.18664 h -4.18664 z m 4.93425,0 h 4.18664 v 4.18664 h -4.18664 z" />
  </g>
  <path
     d="m 172.36609,80.624451 h 45.39093 v 45.390929 h -45.39093 z"
     style="opacity:1;fill:#ffffff;fill-opacity:1;stroke:#000000;stroke-width:1.84861;stroke-miterlimit:4;stroke-dasharray:none;stroke-opacity:1"
     id="rect14-2-2" />
  <g
     style="font-size:74.7614px;line-height:1.25;font-family:Arcade;-inkscape-font-specification:Arcade;letter-spacing:0px;word-spacing:0px;writing-mode:lr-tb;fill:#000000;stroke-width:3.50445"
     id="text1004-4-8"
     aria-label="S">
    <path
       id="path1644"
       style="stroke-width:3.50445"
       d="m 202.90394,105.69797 h 4.18663 v 4.18664 h -4.18663 z m 4.93425,0 h 4.18664 v 4.18664 h -4.18664 z m -29.68028,4.93425 h 4.18664 v 4.18664 h -4.18664 z m 4.93426,0 h 4.18663 v 4.18664 h -4.18663 z m 19.81177,0 h 4.18663 v 4.18664 h -4.18663 z m 4.93425,0 h 4.18664 v 4.18664 h -4.18664 z m -24.74602,4.93425 h 4.18663 v 4.18664 h -4.18663 z m 4.93425,0 h 4.18664 v 4.18664 h -4.18664 z m 4.93425,0 h 4.18664 v 4.18664 h -4.18664 z m 5.00901,0 h 4.18664 v 4.18664 h -4.18664 z m 4.93426,0 h 4.18663 v 4.18664 h -4.18663 z M 183.09217,85.886197 h 4.18663 v 4.186638 h -4.18663 z m 4.93425,0 h 4.18664 v 4.186638 h -4.18664 z m 4.93425,0 h 4.18664 v 4.186638 h -4.18664 z m 5.00901,0 h 4.18664 v 4.186638 h -4.18664 z m 4.93426,0 h 4.18663 v 4.186638 h -4.18663 z m -24.74603,4.934252 h 4.18664 v 4.186638 h -4.18664 z m 4.93426,0 h 4.18663 v 4.186638 h -4.18663 z m 19.81177,0 h 4.18663 v 4.186638 h -4.18663 z m 4.93425,0 h 4.18664 v 4.186638 h -4.18664 z m -29.68028,4.934252 h 4.18664 v 4.186639 h -4.18664 z m 4.93426,0 h 4.18663 v 4.186639 h -4.18663 z m 0,4.934249 h 4.18663 v 4.18664 h -4.18663 z m 4.93425,0 h 4.18664 v 4.18664 h -4.18664 z m 4.93425,0 h 4.18664 v 4.18664 h -4.18664 z m 5.00901,0 h 4.18664 v 4.18664 h -4.18664 z m 4.93426,0 h 4.18663 v 4.18664 h -4.18663 z" />
  </g>
  <path
     d="m 223.83214,80.624443 h 45.39093 v 45.390937 h -45.39093 z"
     style="opacity:1;fill:#ffffff;fill-opacity:1;stroke:#000000;stroke-width:1.84861;stroke-miterlimit:4;stroke-dasharray:none;stroke-opacity:1"
     id="rect14-2-2-7" />
  <g
     style="font-size:74.7614px;line-height:1.25;font-family:Arcade;-inkscape-font-specification:Arcade;letter-spacing:0px;word-spacing:0px;writing-mode:lr-tb;fill:#000000;stroke-width:3.50445"
     id="text1004-4-8-4"
     aria-label="T">
    <path
       id="path1640"
       style="stroke-width:3.50445"
       d="m 239.49247,105.69797 h 4.18664 v 4.18664 h -4.18664 z m 4.93425,0 h 4.18664 v 4.18664 h -4.18664 z m -4.93425,4.93425 h 4.18664 v 4.18664 h -4.18664 z m 4.93425,0 h 4.18664 v 4.18664 h -4.18664 z m -4.93425,4.93425 h 4.18664 v 4.18664 h -4.18664 z m 4.93425,0 h 4.18664 v 4.18664 h -4.18664 z M 229.62396,85.886197 h 4.18664 v 4.186638 h -4.18664 z m 4.93425,0 h 4.18664 v 4.186638 h -4.18664 z m 4.93426,0 h 4.18664 v 4.186638 h -4.18664 z m 4.93425,0 h 4.18664 v 4.186638 h -4.18664 z m 5.00901,0 h 4.18664 v 4.186638 h -4.18664 z m 4.93426,0 h 4.18663 v 4.186638 h -4.18663 z m -14.87752,4.934252 h 4.18664 v 4.186638 h -4.18664 z m 4.93425,0 h 4.18664 v 4.186638 h -4.18664 z m -4.93425,4.934252 h 4.18664 v 4.186639 h -4.18664 z m 4.93425,0 h 4.18664 v 4.186639 h -4.18664 z m -4.93425,4.934249 h 4.18664 v 4.18664 h -4.18664 z m 4.93425,0 h 4.18664 v 4.18664 h -4.18664 z" />
  </g>
  <path
     d="m 17.967918,132.09053 h 45.390934 v 45.39093 H 17.967918 Z"
     style="opacity:1;fill:#ffffff;fill-opacity:1;stroke:#000000;stroke-width:1.84861;stroke-miterlimit:4;stroke-dasharray:none;stroke-opacity:1"
     id="rect14-3" />
  <g
     style="font-size:74.7614px;line-height:1.25;font-family:Arcade;-inkscape-font-specification:Arcade;letter-spacing:0px;word-spacing:0px;writing-mode:lr-tb;fill:#000000;stroke-width:3.50445"
     id="text1004-6"
     aria-label="D">
    <path
       id="path1636"
       style="stroke-width:3.50445"
       d="m 23.759743,157.16405 h 4.186638 v 4.18664 h -4.186638 z m 4.934252,0 h 4.186638 v 4.18664 h -4.186638 z m 19.811771,0 h 4.186638 v 4.18664 h -4.186638 z m 4.934252,0 h 4.186638 v 4.18664 h -4.186638 z m -29.680275,4.93425 h 4.186638 v 4.18664 h -4.186638 z m 4.934252,0 h 4.186638 v 4.18664 h -4.186638 z m 19.811771,0 h 4.186638 v 4.18664 h -4.186638 z m 4.934252,0 h 4.186638 v 4.18664 h -4.186638 z m -29.680275,4.93425 h 4.186638 v 4.18664 h -4.186638 z m 4.934252,0 h 4.186638 v 4.18664 h -4.186638 z m 4.934252,0 h 4.186639 v 4.18664 h -4.186639 z m 4.934253,0 h 4.186638 v 4.18664 H 38.5625 Z m 5.009013,0 h 4.186639 v 4.18664 h -4.186639 z m 4.934253,0 h 4.186638 v 4.18664 H 48.505766 Z M 23.759743,137.35228 h 4.186638 v 4.18663 h -4.186638 z m 4.934252,0 h 4.186638 v 4.18663 h -4.186638 z m 4.934252,0 h 4.186639 v 4.18663 h -4.186639 z m 4.934253,0 h 4.186638 v 4.18663 H 38.5625 Z m 5.009013,0 h 4.186639 v 4.18663 h -4.186639 z m 4.934253,0 h 4.186638 v 4.18663 h -4.186638 z m -24.746023,4.93425 h 4.186638 v 4.18664 h -4.186638 z m 4.934252,0 h 4.186638 v 4.18664 h -4.186638 z m 19.811771,0 h 4.186638 v 4.18664 h -4.186638 z m 4.934252,0 h 4.186638 v 4.18664 h -4.186638 z m -29.680275,4.93425 h 4.186638 v 4.18664 h -4.186638 z m 4.934252,0 h 4.186638 v 4.18664 h -4.186638 z m 19.811771,0 h 4.186638 v 4.18664 h -4.186638 z m 4.934252,0 h 4.186638 v 4.18664 h -4.186638 z m -29.680275,4.93425 h 4.186638 v 4.18664 h -4.186638 z m 4.934252,0 h 4.186638 v 4.18664 h -4.186638 z m 19.811771,0 h 4.186638 v 4.18664 h -4.186638 z m 4.934252,0 h 4.186638 v 4.18664 h -4.186638 z" />
  </g>
  <path
     d="M 69.433968,132.09052 H 114.8249 v 45.39093 H 69.433968 Z"
     style="opacity:1;fill:#ffffff;fill-opacity:1;stroke:#000000;stroke-width:1.84861;stroke-miterlimit:4;stroke-dasharray:none;stroke-opacity:1"
     id="rect14-2-1" />
  <g
     style="font-size:74.7614px;line-height:1.25;font-family:Arcade;-inkscape-font-specification:Arcade;letter-spacing:0px;word-spacing:0px;writing-mode:lr-tb;fill:#000000;stroke-width:3.50445"
     id="text1004-4-9"
     aria-label="R">
    <path
       id="path1632"
       style="stroke-width:3.50445"
       d="m 75.225784,157.16403 h 4.186639 v 4.18664 h -4.186639 z m 4.934253,0 h 4.186638 v 4.18664 h -4.186638 z m 9.868504,0 h 4.186638 v 4.18664 h -4.186638 z m 5.009014,0 h 4.186638 v 4.18664 h -4.186638 z m -19.811771,4.93425 h 4.186639 v 4.18664 h -4.186639 z m 4.934253,0 h 4.186638 v 4.18664 h -4.186638 z m 14.877518,0 h 4.186638 v 4.18664 h -4.186638 z m 4.934252,0 h 4.186643 v 4.18664 h -4.186643 z m -24.746023,4.93426 h 4.186639 v 4.18663 h -4.186639 z m 4.934253,0 h 4.186638 v 4.18663 h -4.186638 z m 19.81177,0 h 4.186643 v 4.18663 h -4.186643 z m 4.934253,0 h 4.18664 v 4.18663 h -4.18664 z M 75.225784,137.35226 h 4.186639 v 4.18664 h -4.186639 z m 4.934253,0 h 4.186638 v 4.18664 h -4.186638 z m 4.934252,0 h 4.186638 v 4.18664 h -4.186638 z m 4.934252,0 h 4.186638 v 4.18664 h -4.186638 z m 5.009014,0 h 4.186638 v 4.18664 h -4.186638 z m 4.934252,0 h 4.186643 v 4.18664 h -4.186643 z m -24.746023,4.93425 h 4.186639 v 4.18664 h -4.186639 z m 4.934253,0 h 4.186638 v 4.18664 h -4.186638 z m 19.81177,0 h 4.186643 v 4.18664 h -4.186643 z m 4.934253,0 h 4.18664 v 4.18664 h -4.18664 z m -29.680276,4.93426 h 4.186639 v 4.18663 h -4.186639 z m 4.934253,0 h 4.186638 v 4.18663 h -4.186638 z m 19.81177,0 h 4.186643 v 4.18663 h -4.186643 z m 4.934253,0 h 4.18664 v 4.18663 h -4.18664 z m -29.680276,4.93425 h 4.186639 v 4.18664 h -4.186639 z m 4.934253,0 h 4.186638 v 4.18664 h -4.186638 z m 4.934252,0 h 4.186638 v 4.18664 h -4.186638 z m 4.934252,0 h 4.186638 v 4.18664 h -4.186638 z m 5.009014,0 h 4.186638 v 4.18664 h -4.186638 z m 4.934252,0 h 4.186643 v 4.18664 h -4.186643 z" />
  </g>
  <path
     d="m 120.90002,132.09052 h 45.39093 v 45.39093 h -45.39093 z"
     style="opacity:1;fill:#ffffff;fill-opacity:1;stroke:#000000;stroke-width:1.84861;stroke-miterlimit:4;stroke-dasharray:none;stroke-opacity:1"
     id="rect14-28-7" />
  <g
     style="font-size:74.7614px;line-height:1.25;font-family:Arcade;-inkscape-font-specification:Arcade;letter-spacing:0px;word-spacing:0px;writing-mode:lr-tb;fill:#000000;stroke-width:3.50445"
     id="text1004-9-3"
     aria-label="H">
    <path
       id="path1628"
       style="stroke-width:3.50445"
       d="m 126.69185,157.16405 h 4.18664 v 4.18664 h -4.18664 z m 4.93425,0 h 4.18664 v 4.18664 h -4.18664 z m 19.81177,0 h 4.18664 v 4.18664 h -4.18664 z m 4.93425,0 h 4.18664 v 4.18664 h -4.18664 z m -29.68027,4.93425 h 4.18664 v 4.18664 h -4.18664 z m 4.93425,0 h 4.18664 v 4.18664 h -4.18664 z m 19.81177,0 h 4.18664 v 4.18664 h -4.18664 z m 4.93425,0 h 4.18664 v 4.18664 h -4.18664 z m -29.68027,4.93425 h 4.18664 v 4.18664 h -4.18664 z m 4.93425,0 h 4.18664 v 4.18664 h -4.18664 z m 19.81177,0 h 4.18664 v 4.18664 h -4.18664 z m 4.93425,0 h 4.18664 v 4.18664 h -4.18664 z m -29.68027,-29.68027 h 4.18664 v 4.18663 h -4.18664 z m 4.93425,0 h 4.18664 v 4.18663 h -4.18664 z m 19.81177,0 h 4.18664 v 4.18663 h -4.18664 z m 4.93425,0 h 4.18664 v 4.18663 h -4.18664 z m -29.68027,4.93425 h 4.18664 v 4.18664 h -4.18664 z m 4.93425,0 h 4.18664 v 4.18664 h -4.18664 z m 19.81177,0 h 4.18664 v 4.18664 h -4.18664 z m 4.93425,0 h 4.18664 v 4.18664 h -4.18664 z m -29.68027,4.93425 h 4.18664 v 4.18664 h -4.18664 z m 4.93425,0 h 4.18664 v 4.18664 h -4.18664 z m 19.81177,0 h 4.18664 v 4.18664 h -4.18664 z m 4.93425,0 h 4.18664 v 4.18664 h -4.18664 z m -29.68027,4.93425 h 4.18664 v 4.18664 h -4.18664 z m 4.93425,0 h 4.18664 v 4.18664 h -4.18664 z m 4.93425,0 h 4.18664 v 4.18664 h -4.18664 z m 4.93426,0 h 4.18663 v 4.18664 h -4.18663 z m 5.00901,0 h 4.18664 v 4.18664 h -4.18664 z m 4.93425,0 h 4.18664 v 4.18664 h -4.18664 z m 4.93425,0 h 4.18664 v 4.18664 h -4.18664 z" />
  </g>
  <path
     d="m 172.36609,132.09052 h 45.39093 v 45.39093 h -45.39093 z"
     style="opacity:1;fill:#ffffff;fill-opacity:1;stroke:#000000;stroke-width:1.84861;stroke-miterlimit:4;stroke-dasharray:none;stroke-opacity:1"
     id="rect14-2-2-4" />
  <g
     style="font-size:74.7614px;line-height:1.25;font-family:Arcade;-inkscape-font-specification:Arcade;letter-spacing:0px;word-spacing:0px;writing-mode:lr-tb;fill:#000000;stroke-width:3.50445"
     id="text1004-4-8-8"
     aria-label="P">
    <path
       id="path1624"
       style="stroke-width:3.50445"
       d="m 178.15791,157.16403 h 4.18664 v 4.18664 h -4.18664 z m 4.93426,0 h 4.18663 v 4.18664 h -4.18663 z m -4.93426,4.93425 h 4.18664 v 4.18664 h -4.18664 z m 4.93426,0 h 4.18663 v 4.18664 h -4.18663 z m -4.93426,4.93426 h 4.18664 v 4.18663 h -4.18664 z m 4.93426,0 h 4.18663 v 4.18663 h -4.18663 z m -4.93426,-29.68028 h 4.18664 v 4.18664 h -4.18664 z m 4.93426,0 h 4.18663 v 4.18664 h -4.18663 z m 4.93425,0 h 4.18664 v 4.18664 h -4.18664 z m 4.93425,0 h 4.18664 v 4.18664 h -4.18664 z m 5.00901,0 h 4.18664 v 4.18664 h -4.18664 z m 4.93426,0 h 4.18663 v 4.18664 h -4.18663 z m -24.74603,4.93425 h 4.18664 v 4.18664 h -4.18664 z m 4.93426,0 h 4.18663 v 4.18664 h -4.18663 z m 19.81177,0 h 4.18663 v 4.18664 h -4.18663 z m 4.93425,0 h 4.18664 v 4.18664 h -4.18664 z m -29.68028,4.93426 h 4.18664 v 4.18663 h -4.18664 z m 4.93426,0 h 4.18663 v 4.18663 h -4.18663 z m 19.81177,0 h 4.18663 v 4.18663 h -4.18663 z m 4.93425,0 h 4.18664 v 4.18663 h -4.18664 z m -29.68028,4.93425 h 4.18664 v 4.18664 h -4.18664 z m 4.93426,0 h 4.18663 v 4.18664 h -4.18663 z m 4.93425,0 h 4.18664 v 4.18664 h -4.18664 z m 4.93425,0 h 4.18664 v 4.18664 h -4.18664 z m 5.00901,0 h 4.18664 v 4.18664 h -4.18664 z m 4.93426,0 h 4.18663 v 4.18664 h -4.18663 z" />
  </g>
  <path
     d="m 223.83214,132.0905 h 45.39093 v 45.39093 h -45.39093 z"
     style="opacity:1;fill:#ffffff;fill-opacity:1;stroke:#000000;stroke-width:1.84861;stroke-miterlimit:4;stroke-dasharray:none;stroke-opacity:1"
     id="rect14-2-2-7-5" />
  <g
     style="font-size:74.7614px;line-height:1.25;font-family:Arcade;-inkscape-font-specification:Arcade;letter-spacing:0px;word-spacing:0px;writing-mode:lr-tb;fill:#000000;stroke-width:3.50445"
     id="text1004-4-8-4-7"
     aria-label="Y">
    <path
       id="path1620"
       style="stroke-width:3.50445"
       d="m 239.49247,157.16403 h 4.18664 v 4.18664 h -4.18664 z m 4.93425,0 h 4.18664 v 4.18664 h -4.18664 z m -4.93425,4.93425 h 4.18664 v 4.18664 h -4.18664 z m 4.93425,0 h 4.18664 v 4.18664 h -4.18664 z m -4.93425,4.93426 h 4.18664 v 4.18663 h -4.18664 z m 4.93425,0 h 4.18664 v 4.18663 h -4.18664 z m -14.80276,-29.68028 h 4.18664 v 4.18664 h -4.18664 z m 4.93425,0 h 4.18664 v 4.18664 h -4.18664 z m 14.87752,0 h 4.18664 v 4.18664 h -4.18664 z m 4.93426,0 h 4.18663 v 4.18664 h -4.18663 z m -24.74603,4.93425 h 4.18664 v 4.18664 h -4.18664 z m 4.93425,0 h 4.18664 v 4.18664 h -4.18664 z m 14.87752,0 h 4.18664 v 4.18664 h -4.18664 z m 4.93426,0 h 4.18663 v 4.18664 h -4.18663 z m -24.74603,4.93426 h 4.18664 v 4.18663 h -4.18664 z m 4.93425,0 h 4.18664 v 4.18663 h -4.18664 z m 14.87752,0 h 4.18664 v 4.18663 h -4.18664 z m 4.93426,0 h 4.18663 v 4.18663 h -4.18663 z m -19.81178,4.93425 h 4.18664 v 4.18664 h -4.18664 z m 4.93426,0 h 4.18664 v 4.18664 h -4.18664 z m 4.93425,0 h 4.18664 v 4.18664 h -4.18664 z m 5.00901,0 h 4.18664 v 4.18664 h -4.18664 z" />
  </g>
  <path
     d="M 17.967918,183.55656 H 63.358852 V 228.9475 H 17.967918 Z"
     style="opacity:1;fill:#ffffff;fill-opacity:1;stroke:#000000;stroke-width:1.84861;stroke-miterlimit:4;stroke-dasharray:none;stroke-opacity:1"
     id="rect14-5" />
  <g
     style="font-size:74.7614px;line-height:1.25;font-family:Arcade;-inkscape-font-specification:Arcade;letter-spacing:0px;word-spacing:0px;writing-mode:lr-tb;fill:#000000;stroke-width:3.50445"
     id="text1004-90"
     aria-label="N">
    <path
       id="path1616"
       style="stroke-width:3.50445"
       d="m 23.759743,208.63008 h 4.186638 v 4.18664 h -4.186638 z m 4.934252,0 h 4.186638 v 4.18664 h -4.186638 z m 14.877518,0 h 4.186639 v 4.18664 h -4.186639 z m 4.934253,0 h 4.186638 v 4.18664 h -4.186638 z m 4.934252,0 h 4.186638 v 4.18664 h -4.186638 z m -29.680275,4.93425 h 4.186638 v 4.18664 h -4.186638 z m 4.934252,0 h 4.186638 v 4.18664 h -4.186638 z m 19.811771,0 h 4.186638 v 4.18664 h -4.186638 z m 4.934252,0 h 4.186638 v 4.18664 h -4.186638 z m -29.680275,4.93426 h 4.186638 v 4.18663 h -4.186638 z m 4.934252,0 h 4.186638 v 4.18663 h -4.186638 z m 19.811771,0 h 4.186638 v 4.18663 h -4.186638 z m 4.934252,0 h 4.186638 v 4.18663 H 53.440018 Z M 23.759743,188.81831 h 4.186638 v 4.18664 h -4.186638 z m 4.934252,0 h 4.186638 v 4.18664 h -4.186638 z m 19.811771,0 h 4.186638 v 4.18664 h -4.186638 z m 4.934252,0 h 4.186638 v 4.18664 h -4.186638 z m -29.680275,4.93425 h 4.186638 v 4.18664 h -4.186638 z m 4.934252,0 h 4.186638 v 4.18664 h -4.186638 z m 4.934252,0 h 4.186639 v 4.18664 h -4.186639 z m 14.877519,0 h 4.186638 v 4.18664 h -4.186638 z m 4.934252,0 h 4.186638 v 4.18664 h -4.186638 z m -29.680275,4.93425 h 4.186638 v 4.18664 h -4.186638 z m 4.934252,0 h 4.186638 v 4.18664 h -4.186638 z m 4.934252,0 h 4.186639 v 4.18664 h -4.186639 z m 4.934253,0 h 4.186638 v 4.18664 H 38.5625 Z m 9.943266,0 h 4.186638 v 4.18664 h -4.186638 z m 4.934252,0 h 4.186638 v 4.18664 h -4.186638 z m -29.680275,4.93426 h 4.186638 v 4.18664 h -4.186638 z m 4.934252,0 h 4.186638 v 4.18664 h -4.186638 z m 9.868505,0 h 4.186638 v 4.18664 H 38.5625 Z m 5.009013,0 h 4.186639 v 4.18664 h -4.186639 z m 4.934253,0 h 4.186638 v 4.18664 h -4.186638 z m 4.934252,0 h 4.186638 v 4.18664 h -4.186638 z" />
  </g>
  <path
     d="M 69.433968,183.55656 H 114.8249 V 228.9475 H 69.433968 Z"
     style="opacity:1;fill:#ffffff;fill-opacity:1;stroke:#000000;stroke-width:1.84861;stroke-miterlimit:4;stroke-dasharray:none;stroke-opacity:1"
     id="rect14-2-4" />
  <g
     style="font-size:74.7614px;line-height:1.25;font-family:Arcade;-inkscape-font-specification:Arcade;letter-spacing:0px;word-spacing:0px;writing-mode:lr-tb;fill:#000000;stroke-width:3.50445"
     id="text1004-4-6"
     aria-label="J">
    <path
       id="path1612"
       style="stroke-width:3.50445"
       d="m 95.037555,208.63007 h 4.186638 v 4.18663 h -4.186638 z m 4.934252,0 h 4.186643 v 4.18663 h -4.186643 z m -24.746023,4.93425 h 4.186639 v 4.18664 h -4.186639 z m 4.934253,0 h 4.186638 v 4.18664 h -4.186638 z m 14.877518,0 h 4.186638 v 4.18664 h -4.186638 z m 4.934252,0 h 4.186643 v 4.18664 h -4.186643 z m -19.81177,4.93425 h 4.186638 v 4.18664 h -4.186638 z m 4.934252,0 h 4.186638 v 4.18664 h -4.186638 z m 4.934252,0 h 4.186638 v 4.18664 h -4.186638 z m 5.009014,0 h 4.186638 v 4.18664 H 95.037555 Z M 85.094289,188.8183 h 4.186638 v 4.18663 h -4.186638 z m 4.934252,0 h 4.186638 v 4.18663 h -4.186638 z m 5.009014,0 h 4.186638 v 4.18663 h -4.186638 z m 4.934252,0 h 4.186643 v 4.18663 h -4.186643 z m 4.934253,0 h 4.18664 v 4.18663 h -4.18664 z m -9.868505,4.93425 h 4.186638 v 4.18664 h -4.186638 z m 4.934252,0 h 4.186643 v 4.18664 h -4.186643 z m -4.934252,4.93425 h 4.186638 v 4.18664 h -4.186638 z m 4.934252,0 h 4.186643 v 4.18664 h -4.186643 z m -4.934252,4.93425 h 4.186638 v 4.18664 h -4.186638 z m 4.934252,0 h 4.186643 v 4.18664 h -4.186643 z" />
  </g>
  <path
     d="m 120.90002,183.55656 h 45.39093 v 45.39094 h -45.39093 z"
     style="opacity:1;fill:#ffffff;fill-opacity:1;stroke:#000000;stroke-width:1.84861;stroke-miterlimit:4;stroke-dasharray:none;stroke-opacity:1"
     id="rect14-28-72" />
  <g
     style="font-size:74.7614px;line-height:1.25;font-family:Arcade;-inkscape-font-specification:Arcade;letter-spacing:0px;word-spacing:0px;writing-mode:lr-tb;fill:#000000;stroke-width:3.50445"
     id="text1004-9-5"
     aria-label="U">
    <path
       id="path1608"
       style="stroke-width:3.50445"
       d="m 126.69185,208.63008 h 4.18664 v 4.18664 h -4.18664 z m 4.93425,0 h 4.18664 v 4.18664 h -4.18664 z m 19.81177,0 h 4.18664 v 4.18664 h -4.18664 z m 4.93425,0 h 4.18664 v 4.18664 h -4.18664 z m -29.68027,4.93425 h 4.18664 v 4.18664 h -4.18664 z m 4.93425,0 h 4.18664 v 4.18664 h -4.18664 z m 19.81177,0 h 4.18664 v 4.18664 h -4.18664 z m 4.93425,0 h 4.18664 v 4.18664 h -4.18664 z m -24.74602,4.93426 h 4.18664 v 4.18663 h -4.18664 z m 4.93425,0 h 4.18664 v 4.18663 h -4.18664 z m 4.93426,0 h 4.18663 v 4.18663 h -4.18663 z m 5.00901,0 h 4.18664 v 4.18663 h -4.18664 z m 4.93425,0 h 4.18664 v 4.18663 h -4.18664 z m -24.74602,-29.68028 h 4.18664 v 4.18664 h -4.18664 z m 4.93425,0 h 4.18664 v 4.18664 h -4.18664 z m 19.81177,0 h 4.18664 v 4.18664 h -4.18664 z m 4.93425,0 h 4.18664 v 4.18664 h -4.18664 z m -29.68027,4.93425 h 4.18664 v 4.18664 h -4.18664 z m 4.93425,0 h 4.18664 v 4.18664 h -4.18664 z m 19.81177,0 h 4.18664 v 4.18664 h -4.18664 z m 4.93425,0 h 4.18664 v 4.18664 h -4.18664 z m -29.68027,4.93425 h 4.18664 v 4.18664 h -4.18664 z m 4.93425,0 h 4.18664 v 4.18664 h -4.18664 z m 19.81177,0 h 4.18664 v 4.18664 h -4.18664 z m 4.93425,0 h 4.18664 v 4.18664 h -4.18664 z m -29.68027,4.93426 h 4.18664 v 4.18664 h -4.18664 z m 4.93425,0 h 4.18664 v 4.18664 h -4.18664 z m 19.81177,0 h 4.18664 v 4.18664 h -4.18664 z m 4.93425,0 h 4.18664 v 4.18664 h -4.18664 z" />
  </g>
  <path
     d="m 172.36609,183.55655 h 45.39093 v 45.39093 h -45.39093 z"
     style="opacity:1;fill:#ffffff;fill-opacity:1;stroke:#000000;stroke-width:1.84861;stroke-miterlimit:4;stroke-dasharray:none;stroke-opacity:1"
     id="rect14-2-2-8" />
  <g
     style="font-size:74.7614px;line-height:1.25;font-family:Arcade;-inkscape-font-specification:Arcade;letter-spacing:0px;word-spacing:0px;writing-mode:lr-tb;fill:#000000;stroke-width:3.50445"
     id="text1004-4-8-1"
     aria-label="G">
    <path
       id="path1604"
       style="stroke-width:3.50445"
       d="m 178.15791,208.63007 h 4.18664 v 4.18663 h -4.18664 z m 4.93426,0 h 4.18663 v 4.18663 h -4.18663 z m 19.81177,0 h 4.18663 v 4.18663 h -4.18663 z m 4.93425,0 h 4.18664 v 4.18663 h -4.18664 z m -29.68028,4.93425 h 4.18664 v 4.18664 h -4.18664 z m 4.93426,0 h 4.18663 v 4.18664 h -4.18663 z m 19.81177,0 h 4.18663 v 4.18664 h -4.18663 z m 4.93425,0 h 4.18664 v 4.18664 h -4.18664 z m -24.74602,4.93425 h 4.18663 v 4.18664 h -4.18663 z m 4.93425,0 h 4.18664 v 4.18664 h -4.18664 z m 4.93425,0 h 4.18664 v 4.18664 h -4.18664 z m 5.00901,0 h 4.18664 v 4.18664 h -4.18664 z m 4.93426,0 h 4.18663 v 4.18664 h -4.18663 z M 183.09217,188.8183 h 4.18663 v 4.18663 h -4.18663 z m 4.93425,0 h 4.18664 v 4.18663 h -4.18664 z m 4.93425,0 h 4.18664 v 4.18663 h -4.18664 z m 5.00901,0 h 4.18664 v 4.18663 h -4.18664 z m 4.93426,0 h 4.18663 v 4.18663 h -4.18663 z m -24.74603,4.93425 h 4.18664 v 4.18664 h -4.18664 z m 4.93426,0 h 4.18663 v 4.18664 h -4.18663 z m 19.81177,0 h 4.18663 v 4.18664 h -4.18663 z m 4.93425,0 h 4.18664 v 4.18664 h -4.18664 z m -29.68028,4.93425 h 4.18664 v 4.18664 h -4.18664 z m 4.93426,0 h 4.18663 v 4.18664 h -4.18663 z m -4.93426,4.93425 h 4.18664 v 4.18664 h -4.18664 z m 4.93426,0 h 4.18663 v 4.18664 h -4.18663 z m 14.87751,0 h 4.18664 v 4.18664 h -4.18664 z m 4.93426,0 h 4.18663 v 4.18664 h -4.18663 z m 4.93425,0 h 4.18664 v 4.18664 h -4.18664 z" />
  </g>
  <path
     d="m 223.83214,183.55655 h 45.39093 v 45.39093 h -45.39093 z"
     style="opacity:1;fill:#ffffff;fill-opacity:1;stroke:#000000;stroke-width:1.84861;stroke-miterlimit:4;stroke-dasharray:none;stroke-opacity:1"
     id="rect14-2-2-7-4" />
  <g
     style="font-size:74.7614px;line-height:1.25;font-family:Arcade;-inkscape-font-specification:Arcade;letter-spacing:0px;word-spacing:0px;writing-mode:lr-tb;fill:#000000;stroke-width:3.50445"
     id="text1004-4-8-4-0"
     aria-label="I">
    <path
       id="path1600"
       style="stroke-width:3.50445"
       d="m 239.49247,208.63007 h 4.18664 v 4.18663 h -4.18664 z m 4.93425,0 h 4.18664 v 4.18663 h -4.18664 z m -4.93425,4.93425 h 4.18664 v 4.18664 h -4.18664 z m 4.93425,0 h 4.18664 v 4.18664 h -4.18664 z m -14.80276,4.93425 h 4.18664 v 4.18664 h -4.18664 z m 4.93425,0 h 4.18664 v 4.18664 h -4.18664 z m 4.93426,0 h 4.18664 v 4.18664 h -4.18664 z m 4.93425,0 h 4.18664 v 4.18664 h -4.18664 z m 5.00901,0 h 4.18664 v 4.18664 h -4.18664 z m 4.93426,0 h 4.18663 v 4.18664 h -4.18663 z M 229.62396,188.8183 h 4.18664 v 4.18663 h -4.18664 z m 4.93425,0 h 4.18664 v 4.18663 h -4.18664 z m 4.93426,0 h 4.18664 v 4.18663 h -4.18664 z m 4.93425,0 h 4.18664 v 4.18663 h -4.18664 z m 5.00901,0 h 4.18664 v 4.18663 h -4.18664 z m 4.93426,0 h 4.18663 v 4.18663 h -4.18663 z m -14.87752,4.93425 h 4.18664 v 4.18664 h -4.18664 z m 4.93425,0 h 4.18664 v 4.18664 h -4.18664 z m -4.93425,4.93425 h 4.18664 v 4.18664 h -4.18664 z m 4.93425,0 h 4.18664 v 4.18664 h -4.18664 z m -4.93425,4.93425 h 4.18664 v 4.18664 h -4.18664 z m 4.93425,0 h 4.18664 v 4.18664 h -4.18664 z" />
  </g>
  <path
     d="m 17.967915,235.02263 h 45.390934 v 45.39093 H 17.967915 Z"
     style="opacity:1;fill:#ffffff;fill-opacity:1;stroke:#000000;stroke-width:1.84861;stroke-miterlimit:4;stroke-dasharray:none;stroke-opacity:1"
     id="rect14-3-5" />
  <g
     style="font-size:74.7614px;line-height:1.25;font-family:Arcade;-inkscape-font-specification:Arcade;letter-spacing:0px;word-spacing:0px;writing-mode:lr-tb;fill:#000000;stroke-width:3.50445"
     id="text1004-6-2"
     aria-label="K">
    <path
       id="path1596"
       style="stroke-width:3.50445"
       d="m 23.759739,260.09615 h 4.186638 v 4.18663 h -4.186638 z m 4.934252,0 h 4.186639 v 4.18663 h -4.186639 z m 4.934252,0 h 4.186639 v 4.18663 h -4.186639 z m 4.934253,0 h 4.186638 v 4.18663 h -4.186638 z m 5.009013,0 h 4.186639 v 4.18663 h -4.186639 z m -19.81177,4.93425 h 4.186638 v 4.18664 h -4.186638 z m 4.934252,0 h 4.186639 v 4.18664 h -4.186639 z m 9.868505,0 h 4.186638 v 4.18664 h -4.186638 z m 5.009013,0 h 4.186639 v 4.18664 h -4.186639 z m 4.934253,0 H 52.6924 v 4.18664 h -4.186638 z m -24.746023,4.93425 h 4.186638 v 4.18664 h -4.186638 z m 4.934252,0 h 4.186639 v 4.18664 h -4.186639 z m 19.811771,0 H 52.6924 v 4.18664 h -4.186638 z m 4.934252,0 h 4.186638 v 4.18664 H 53.440014 Z M 23.759739,240.28437 h 4.186638 v 4.18664 h -4.186638 z m 4.934252,0 h 4.186639 v 4.18664 h -4.186639 z m 19.811771,0 H 52.6924 v 4.18664 h -4.186638 z m 4.934252,0 h 4.186638 v 4.18664 h -4.186638 z m -29.680275,4.93426 h 4.186638 v 4.18664 h -4.186638 z m 4.934252,0 h 4.186639 v 4.18664 h -4.186639 z m 14.877518,0 h 4.186639 v 4.18664 h -4.186639 z m 4.934253,0 H 52.6924 v 4.18664 h -4.186638 z m -24.746023,4.93425 h 4.186638 v 4.18664 h -4.186638 z m 4.934252,0 h 4.186639 v 4.18664 h -4.186639 z m 9.868505,0 h 4.186638 v 4.18664 h -4.186638 z m 5.009013,0 h 4.186639 v 4.18664 h -4.186639 z m -19.81177,4.93425 h 4.186638 v 4.18664 h -4.186638 z m 4.934252,0 h 4.186639 v 4.18664 h -4.186639 z m 4.934252,0 h 4.186639 v 4.18664 h -4.186639 z m 4.934253,0 h 4.186638 v 4.18664 h -4.186638 z" />
  </g>
  <path
     d="M 69.433968,235.02261 H 114.8249 v 45.39094 H 69.433968 Z"
     style="opacity:1;fill:#ffffff;fill-opacity:1;stroke:#000000;stroke-width:1.84861;stroke-miterlimit:4;stroke-dasharray:none;stroke-opacity:1"
     id="rect14-2-1-7" />
  <g
     style="font-size:74.7614px;line-height:1.25;font-family:Arcade;-inkscape-font-specification:Arcade;letter-spacing:0px;word-spacing:0px;writing-mode:lr-tb;fill:#000000;stroke-width:3.50445"
     id="text1004-4-9-1"
     aria-label="C">
    <path
       id="path1592"
       style="stroke-width:3.50445"
       d="m 75.225784,260.09608 h 4.186639 v 4.18664 h -4.186639 z m 4.934253,0 h 4.186638 v 4.18664 h -4.186638 z m -4.934253,4.93426 h 4.186639 v 4.18663 h -4.186639 z m 4.934253,0 h 4.186638 v 4.18663 h -4.186638 z m 19.81177,0 h 4.186643 v 4.18663 h -4.186643 z m 4.934253,0 h 4.18664 v 4.18663 h -4.18664 z m -24.746023,4.93425 h 4.186638 v 4.18664 h -4.186638 z m 4.934252,0 h 4.186638 v 4.18664 h -4.186638 z m 4.934252,0 h 4.186638 v 4.18664 h -4.186638 z m 5.009014,0 h 4.186638 v 4.18664 h -4.186638 z m 4.934252,0 h 4.186643 v 4.18664 h -4.186643 z m -19.81177,-29.68028 h 4.186638 v 4.18664 h -4.186638 z m 4.934252,0 h 4.186638 v 4.18664 h -4.186638 z m 4.934252,0 h 4.186638 v 4.18664 h -4.186638 z m 5.009014,0 h 4.186638 v 4.18664 h -4.186638 z m 4.934252,0 h 4.186643 v 4.18664 h -4.186643 z m -24.746023,4.93426 h 4.186639 v 4.18663 h -4.186639 z m 4.934253,0 h 4.186638 v 4.18663 h -4.186638 z m 19.81177,0 h 4.186643 v 4.18663 h -4.186643 z m 4.934253,0 h 4.18664 v 4.18663 h -4.18664 z m -29.680276,4.93425 h 4.186639 v 4.18664 h -4.186639 z m 4.934253,0 h 4.186638 v 4.18664 h -4.186638 z m -4.934253,4.93425 h 4.186639 v 4.18664 h -4.186639 z m 4.934253,0 h 4.186638 v 4.18664 h -4.186638 z" />
  </g>
  <path
     d="m 120.90002,235.02261 h 45.39093 v 45.39094 h -45.39093 z"
     style="opacity:1;fill:#ffffff;fill-opacity:1;stroke:#000000;stroke-width:1.84861;stroke-miterlimit:4;stroke-dasharray:none;stroke-opacity:1"
     id="rect14-28-7-8" />
  <g
     style="font-size:74.7614px;line-height:1.25;font-family:Arcade;-inkscape-font-specification:Arcade;letter-spacing:0px;word-spacing:0px;writing-mode:lr-tb;fill:#000000;stroke-width:3.50445"
     id="text1004-9-3-4"
     aria-label="F">
    <path
       id="path1588"
       style="stroke-width:3.50445"
       d="m 126.69185,260.09615 h 4.18664 v 4.18663 h -4.18664 z m 4.93425,0 h 4.18664 v 4.18663 h -4.18664 z m -4.93425,4.93425 h 4.18664 v 4.18664 h -4.18664 z m 4.93425,0 h 4.18664 v 4.18664 h -4.18664 z m -4.93425,4.93425 h 4.18664 v 4.18664 h -4.18664 z m 4.93425,0 h 4.18664 v 4.18664 h -4.18664 z m -4.93425,-29.68028 h 4.18664 v 4.18664 h -4.18664 z m 4.93425,0 h 4.18664 v 4.18664 h -4.18664 z m 4.93425,0 h 4.18664 v 4.18664 h -4.18664 z m 4.93426,0 h 4.18663 v 4.18664 h -4.18663 z m 5.00901,0 h 4.18664 v 4.18664 h -4.18664 z m 4.93425,0 h 4.18664 v 4.18664 h -4.18664 z m 4.93425,0 h 4.18664 v 4.18664 h -4.18664 z m -29.68027,4.93426 h 4.18664 v 4.18664 h -4.18664 z m 4.93425,0 h 4.18664 v 4.18664 h -4.18664 z m -4.93425,4.93425 h 4.18664 v 4.18664 h -4.18664 z m 4.93425,0 h 4.18664 v 4.18664 h -4.18664 z m -4.93425,4.93425 h 4.18664 v 4.18664 h -4.18664 z m 4.93425,0 h 4.18664 v 4.18664 h -4.18664 z m 4.93425,0 h 4.18664 v 4.18664 h -4.18664 z m 4.93426,0 h 4.18663 v 4.18664 h -4.18663 z m 5.00901,0 h 4.18664 v 4.18664 h -4.18664 z m 4.93425,0 h 4.18664 v 4.18664 h -4.18664 z" />
  </g>
  <path
     d="m 172.36609,235.02261 h 45.39093 v 45.39094 h -45.39093 z"
     style="opacity:1;fill:#ffffff;fill-opacity:1;stroke:#000000;stroke-width:1.84861;stroke-miterlimit:4;stroke-dasharray:none;stroke-opacity:1"
     id="rect14-2-2-4-2" />
  <g
     style="font-size:74.7614px;line-height:1.25;font-family:Arcade;-inkscape-font-specification:Arcade;letter-spacing:0px;word-spacing:0px;writing-mode:lr-tb;fill:#000000;stroke-width:3.50445"
     id="text1004-4-8-8-4"
     aria-label="X">
    <path
       id="path1584"
       style="stroke-width:3.50445"
       d="m 183.09217,260.09608 h 4.18663 v 4.18664 h -4.18663 z m 4.93425,0 h 4.18664 v 4.18664 h -4.18664 z m 9.94326,0 h 4.18664 v 4.18664 h -4.18664 z m 4.93426,0 h 4.18663 v 4.18664 h -4.18663 z m -24.74603,4.93426 h 4.18664 v 4.18663 h -4.18664 z m 4.93426,0 h 4.18663 v 4.18663 h -4.18663 z m 19.81177,0 h 4.18663 v 4.18663 h -4.18663 z m 4.93425,0 h 4.18664 v 4.18663 h -4.18664 z m -29.68028,4.93425 h 4.18664 v 4.18664 h -4.18664 z m 29.68028,0 h 4.18664 v 4.18664 h -4.18664 z m -29.68028,-29.68028 h 4.18664 v 4.18664 h -4.18664 z m 4.93426,0 h 4.18663 v 4.18664 h -4.18663 z m 23.9984,4.18664 z m 0.74762,-4.18664 h 4.18664 v 4.18664 h -4.18664 z m -24.74602,4.93426 h 4.18663 v 4.18663 h -4.18663 z m 4.93425,0 h 4.18664 v 4.18663 h -4.18664 z m 9.94326,0 h 4.18664 v 4.18663 h -4.18664 z m 4.93426,0 h 4.18663 v 4.18663 h -4.18663 z m -14.87752,4.93425 h 4.18664 v 4.18664 h -4.18664 z m 4.93425,0 h 4.18664 v 4.18664 h -4.18664 z m 5.00901,0 h 4.18664 v 4.18664 h -4.18664 z m -9.94326,4.93425 h 4.18664 v 4.18664 h -4.18664 z m 4.93425,0 h 4.18664 v 4.18664 h -4.18664 z m 5.00901,0 h 4.18664 v 4.18664 h -4.18664 z m 4.93426,-14.80276 h 4.18663 v 4.18664 h -4.18663 z" />
  </g>
  <path
     d="m 223.83214,235.0226 h 45.39093 v 45.39093 h -45.39093 z"
     style="opacity:1;fill:#ffffff;fill-opacity:1;stroke:#000000;stroke-width:1.84861;stroke-miterlimit:4;stroke-dasharray:none;stroke-opacity:1"
     id="rect14-2-2-7-5-5" />
  <g
     style="font-size:74.7614px;line-height:1.25;font-family:Arcade;-inkscape-font-specification:Arcade;letter-spacing:0px;word-spacing:0px;writing-mode:lr-tb;fill:#000000;stroke-width:3.50445"
     id="text1004-4-8-4-7-0"
     aria-label="Z">
    <path
       id="path1580"
       style="stroke-width:3.50445"
       d="m 234.55821,260.09608 h 4.18664 v 4.18664 h -4.18664 z m 4.93426,0 h 4.18664 v 4.18664 h -4.18664 z m -9.86851,4.93426 h 4.18664 v 4.18663 h -4.18664 z m 4.93425,0 h 4.18664 v 4.18663 h -4.18664 z m -4.93425,4.93425 h 4.18664 v 4.18664 h -4.18664 z m 4.93425,0 h 4.18664 v 4.18664 h -4.18664 z m 4.93426,0 h 4.18664 v 4.18664 h -4.18664 z m 4.93425,0 h 4.18664 v 4.18664 h -4.18664 z m 5.00901,0 h 4.18664 v 4.18664 h -4.18664 z m 4.93426,0 h 4.18663 v 4.18664 h -4.18663 z m 4.93425,0 h 4.18664 v 4.18664 h -4.18664 z m -29.68028,-29.68028 h 4.18664 v 4.18664 h -4.18664 z m 4.93425,0 h 4.18664 v 4.18664 h -4.18664 z m 4.93426,0 h 4.18664 v 4.18664 h -4.18664 z m 4.93425,0 h 4.18664 v 4.18664 h -4.18664 z m 5.00901,0 h 4.18664 v 4.18664 h -4.18664 z m 4.93426,0 h 4.18663 v 4.18664 h -4.18663 z m 4.93425,0 h 4.18664 v 4.18664 h -4.18664 z m -9.86851,4.93426 h 4.18664 v 4.18663 h -4.18664 z m 4.93426,0 h 4.18663 v 4.18663 h -4.18663 z m -9.94327,4.93425 h 4.18664 v 4.18664 h -4.18664 z m 5.00901,0 h 4.18664 v 4.18664 h -4.18664 z m -9.94326,4.93425 h 4.18664 v 4.18664 h -4.18664 z m 4.93425,0 h 4.18664 v 4.18664 h -4.18664 z" />
  </g>
  <path
     d="m 17.967915,286.48865 h 45.390934 v 45.39093 H 17.967915 Z"
     style="opacity:1;fill:#ffffff;fill-opacity:1;stroke:#000000;stroke-width:1.84861;stroke-miterlimit:4;stroke-dasharray:none;stroke-opacity:1"
     id="rect14-5-5" />
  <g
     style="font-size:74.7614px;line-height:1.25;font-family:Arcade;-inkscape-font-specification:Arcade;letter-spacing:0px;word-spacing:0px;writing-mode:lr-tb;fill:#000000;stroke-width:3.50445"
     id="text1004-90-8"
     aria-label="V">
    <path
       id="path1576"
       style="stroke-width:3.50445"
       d="m 23.759739,311.56215 h 4.186638 v 4.18664 h -4.186638 z m 4.934252,0 h 4.186639 v 4.18664 h -4.186639 z m 19.811771,0 H 52.6924 v 4.18664 h -4.186638 z m 4.934252,0 h 4.186638 v 4.18664 h -4.186638 z m -24.746023,4.93425 h 4.186639 v 4.18664 h -4.186639 z m 4.934252,0 h 4.186639 v 4.18664 h -4.186639 z m 9.943266,0 h 4.186639 v 4.18664 h -4.186639 z m 4.934253,0 H 52.6924 v 4.18664 h -4.186638 z m -14.877519,4.93425 h 4.186639 v 4.18664 h -4.186639 z m 4.934253,0 h 4.186638 v 4.18664 h -4.186638 z m 5.009013,0 h 4.186639 v 4.18664 h -4.186639 z m -19.81177,-29.68027 h 4.186638 v 4.18664 h -4.186638 z m 4.934252,0 h 4.186639 v 4.18664 h -4.186639 z m 19.811771,0 H 52.6924 v 4.18664 h -4.186638 z m 4.934252,0 h 4.186638 v 4.18664 h -4.186638 z m -29.680275,4.93425 h 4.186638 v 4.18664 h -4.186638 z m 4.934252,0 h 4.186639 v 4.18664 h -4.186639 z m 19.811771,0 H 52.6924 v 4.18664 h -4.186638 z m 4.934252,0 h 4.186638 v 4.18664 h -4.186638 z m -29.680275,4.93425 h 4.186638 v 4.18664 h -4.186638 z m 4.934252,0 h 4.186639 v 4.18664 h -4.186639 z m 19.811771,0 H 52.6924 v 4.18664 h -4.186638 z m 4.934252,0 h 4.186638 v 4.18664 h -4.186638 z m -29.680275,4.93426 h 4.186638 v 4.18663 h -4.186638 z m 4.934252,0 h 4.186639 v 4.18663 h -4.186639 z m 19.811771,0 H 52.6924 v 4.18663 h -4.186638 z m 4.934252,0 h 4.186638 v 4.18663 h -4.186638 z" />
  </g>
  <path
     d="M 69.433968,286.48865 H 114.8249 v 45.39093 H 69.433968 Z"
     style="opacity:1;fill:#ffffff;fill-opacity:1;stroke:#000000;stroke-width:1.84861;stroke-miterlimit:4;stroke-dasharray:none;stroke-opacity:1"
     id="rect14-2-4-9" />
  <g
     style="font-size:74.7614px;line-height:1.25;font-family:Arcade;-inkscape-font-specification:Arcade;letter-spacing:0px;word-spacing:0px;writing-mode:lr-tb;fill:#000000;stroke-width:3.50445"
     id="text1004-4-6-4"
     aria-label="L">
    <path
       id="path1572"
       style="stroke-width:3.50445"
       d="m 75.225784,311.56215 h 4.186639 v 4.18664 h -4.186639 z m 4.934253,0 h 4.186638 v 4.18664 h -4.186638 z m -4.934253,4.93425 h 4.186639 v 4.18664 h -4.186639 z m 4.934253,0 h 4.186638 v 4.18664 h -4.186638 z m -4.934253,4.93425 h 4.186639 v 4.18664 h -4.186639 z m 4.934253,0 h 4.186638 v 4.18664 h -4.186638 z m 4.934252,0 h 4.186638 v 4.18664 h -4.186638 z m 4.934252,0 h 4.186638 v 4.18664 h -4.186638 z m 5.009014,0 h 4.186638 v 4.18664 h -4.186638 z m 4.934252,0 h 4.186643 v 4.18664 h -4.186643 z m 4.934253,0 h 4.18664 v 4.18664 h -4.18664 z M 75.225784,291.75038 h 4.186639 v 4.18664 h -4.186639 z m 4.934253,0 h 4.186638 v 4.18664 h -4.186638 z m -4.934253,4.93425 h 4.186639 v 4.18664 h -4.186639 z m 4.934253,0 h 4.186638 v 4.18664 h -4.186638 z m -4.934253,4.93425 h 4.186639 v 4.18664 h -4.186639 z m 4.934253,0 h 4.186638 v 4.18664 h -4.186638 z m -4.934253,4.93426 h 4.186639 v 4.18663 h -4.186639 z m 4.934253,0 h 4.186638 v 4.18663 h -4.186638 z" />
  </g>
  <path
     d="m 120.90002,286.48865 h 45.39093 v 45.39093 h -45.39093 z"
     style="opacity:1;fill:#ffffff;fill-opacity:1;stroke:#000000;stroke-width:1.84861;stroke-miterlimit:4;stroke-dasharray:none;stroke-opacity:1"
     id="rect14-28-72-7" />
  <g
     style="font-size:74.7614px;line-height:1.25;font-family:Arcade;-inkscape-font-specification:Arcade;letter-spacing:0px;word-spacing:0px;writing-mode:lr-tb;fill:#000000;stroke-width:3.50445"
     id="text1004-9-5-5"
     aria-label="B">
    <path
       id="path1568"
       style="stroke-width:3.50445"
       d="m 126.69185,311.56215 h 4.18664 v 4.18664 h -4.18664 z m 4.93425,0 h 4.18664 v 4.18664 h -4.18664 z m 19.81177,0 h 4.18664 v 4.18664 h -4.18664 z m 4.93425,0 h 4.18664 v 4.18664 h -4.18664 z m -29.68027,4.93425 h 4.18664 v 4.18664 h -4.18664 z m 4.93425,0 h 4.18664 v 4.18664 h -4.18664 z m 19.81177,0 h 4.18664 v 4.18664 h -4.18664 z m 4.93425,0 h 4.18664 v 4.18664 h -4.18664 z m -29.68027,4.93425 h 4.18664 v 4.18664 h -4.18664 z m 4.93425,0 h 4.18664 v 4.18664 h -4.18664 z m 4.93425,0 h 4.18664 v 4.18664 h -4.18664 z m 4.93426,0 h 4.18663 v 4.18664 h -4.18663 z m 5.00901,0 h 4.18664 v 4.18664 h -4.18664 z m 4.93425,0 h 4.18664 v 4.18664 h -4.18664 z m -24.74602,-29.68027 h 4.18664 v 4.18664 h -4.18664 z m 4.93425,0 h 4.18664 v 4.18664 h -4.18664 z m 4.93425,0 h 4.18664 v 4.18664 h -4.18664 z m 4.93426,0 h 4.18663 v 4.18664 h -4.18663 z m 5.00901,0 h 4.18664 v 4.18664 h -4.18664 z m 4.93425,0 h 4.18664 v 4.18664 h -4.18664 z m -24.74602,4.93425 h 4.18664 v 4.18664 h -4.18664 z m 4.93425,0 h 4.18664 v 4.18664 h -4.18664 z m 19.81177,0 h 4.18664 v 4.18664 h -4.18664 z m 4.93425,0 h 4.18664 v 4.18664 h -4.18664 z m -29.68027,4.93425 h 4.18664 v 4.18664 h -4.18664 z m 4.93425,0 h 4.18664 v 4.18664 h -4.18664 z m 19.81177,0 h 4.18664 v 4.18664 h -4.18664 z m 4.93425,0 h 4.18664 v 4.18664 h -4.18664 z m -29.68027,4.93426 h 4.18664 v 4.18663 h -4.18664 z m 4.93425,0 h 4.18664 v 4.18663 h -4.18664 z m 4.93425,0 h 4.18664 v 4.18663 h -4.18664 z m 4.93426,0 h 4.18663 v 4.18663 h -4.18663 z m 5.00901,0 h 4.18664 v 4.18663 h -4.18664 z m 4.93425,0 h 4.18664 v 4.18663 h -4.18664 z" />
  </g>
  <path
     d="m 172.36609,286.48865 h 45.39093 v 45.39093 h -45.39093 z"
     style="opacity:1;fill:#ffffff;fill-opacity:1;stroke:#000000;stroke-width:1.84861;stroke-miterlimit:4;stroke-dasharray:none;stroke-opacity:1"
     id="rect14-2-2-8-3" />
  <g
     style="font-size:74.7614px;line-height:1.25;font-family:Arcade;-inkscape-font-specification:Arcade;letter-spacing:0px;word-spacing:0px;writing-mode:lr-tb;fill:#000000;stroke-width:3.50445"
     id="text1004-4-8-1-1"
     aria-label="M">
    <path
       id="path1564"
       style="stroke-width:3.50445"
       d="m 178.15791,311.56215 h 4.18664 v 4.18664 h -4.18664 z m 4.93426,0 h 4.18663 v 4.18664 h -4.18663 z m 9.8685,0 h 4.18664 v 4.18664 h -4.18664 z m 9.94327,0 h 4.18663 v 4.18664 h -4.18663 z m 4.93425,0 h 4.18664 v 4.18664 h -4.18664 z m -29.68028,4.93425 h 4.18664 v 4.18664 h -4.18664 z m 4.93426,0 h 4.18663 v 4.18664 h -4.18663 z m 19.81177,0 h 4.18663 v 4.18664 h -4.18663 z m 4.93425,0 h 4.18664 v 4.18664 h -4.18664 z m -29.68028,4.93425 h 4.18664 v 4.18664 h -4.18664 z m 4.93426,0 h 4.18663 v 4.18664 h -4.18663 z m 19.81177,0 h 4.18663 v 4.18664 h -4.18663 z m 4.93425,0 h 4.18664 v 4.18664 h -4.18664 z m -29.68028,-29.68027 h 4.18664 v 4.18664 h -4.18664 z m 29.68028,0 h 4.18664 v 4.18664 h -4.18664 z m -29.68028,4.93425 h 4.18664 v 4.18664 h -4.18664 z m 4.93426,0 h 4.18663 v 4.18664 h -4.18663 z m 19.81177,0 h 4.18663 v 4.18664 h -4.18663 z m 4.93425,0 h 4.18664 v 4.18664 h -4.18664 z m -29.68028,4.93425 h 4.18664 v 4.18664 h -4.18664 z m 4.93426,0 h 4.18663 v 4.18664 h -4.18663 z m 4.93425,0 h 4.18664 v 4.18664 h -4.18664 z m 9.94326,0 h 4.18664 v 4.18664 h -4.18664 z m 4.93426,0 h 4.18663 v 4.18664 h -4.18663 z m 4.93425,0 h 4.18664 v 4.18664 h -4.18664 z m -29.68028,4.93426 h 4.18664 v 4.18663 h -4.18664 z m 4.93426,0 h 4.18663 v 4.18663 h -4.18663 z m 4.93425,0 h 4.18664 v 4.18663 h -4.18664 z m 4.93425,0 h 4.18664 v 4.18663 h -4.18664 z m 5.00901,0 h 4.18664 v 4.18663 h -4.18664 z m 4.93426,0 h 4.18663 v 4.18663 h -4.18663 z m 4.93425,0 h 4.18664 v 4.18663 h -4.18664 z" />
  </g>
  <path
     d="m 223.83214,286.48865 h 45.39093 v 45.39093 h -45.39093 z"
     style="opacity:1;fill:#ffffff;fill-opacity:1;stroke:#000000;stroke-width:1.84861;stroke-miterlimit:4;stroke-dasharray:none;stroke-opacity:1"
     id="rect14-2-2-7-4-3" />
  <g
     style="font-size:74.7614px;line-height:1.25;font-family:Arcade;-inkscape-font-specification:Arcade;letter-spacing:0px;word-spacing:0px;writing-mode:lr-tb;fill:#000000;stroke-width:3.50445"
     id="text1004-4-8-4-0-9"
     aria-label="W">
    <path
       id="path1560"
       style="stroke-width:3.50445"
       d="m 229.62396,311.56215 h 4.18664 v 4.18664 h -4.18664 z m 4.93425,0 h 4.18664 v 4.18664 h -4.18664 z m 9.86851,0 h 4.18664 v 4.18664 h -4.18664 z m 9.94327,0 h 4.18663 v 4.18664 h -4.18663 z m 4.93425,0 h 4.18664 v 4.18664 h -4.18664 z m -29.68028,4.93425 h 4.18664 v 4.18664 h -4.18664 z m 4.93425,0 h 4.18664 v 4.18664 h -4.18664 z m 4.93426,0 h 4.18664 v 4.18664 h -4.18664 z m 4.93425,0 h 4.18664 v 4.18664 h -4.18664 z m 5.00901,0 h 4.18664 v 4.18664 h -4.18664 z m 4.93426,0 h 4.18663 v 4.18664 h -4.18663 z m 4.93425,0 h 4.18664 v 4.18664 h -4.18664 z m -24.74603,4.93425 h 4.18664 v 4.18664 h -4.18664 z m 4.93426,0 h 4.18664 v 4.18664 h -4.18664 z m 9.94326,0 h 4.18664 v 4.18664 h -4.18664 z m 4.93426,0 h 4.18663 v 4.18664 h -4.18663 z m -24.74603,-29.68027 h 4.18664 v 4.18664 h -4.18664 z m 4.93425,0 h 4.18664 v 4.18664 h -4.18664 z m 19.81178,0 h 4.18663 v 4.18664 h -4.18663 z m 4.93425,0 h 4.18664 v 4.18664 h -4.18664 z m -29.68028,4.93425 h 4.18664 v 4.18664 h -4.18664 z m 4.93425,0 h 4.18664 v 4.18664 h -4.18664 z m 19.81178,0 h 4.18663 v 4.18664 h -4.18663 z m 4.93425,0 h 4.18664 v 4.18664 h -4.18664 z m -29.68028,4.93425 h 4.18664 v 4.18664 h -4.18664 z m 4.93425,0 h 4.18664 v 4.18664 h -4.18664 z m 19.81178,0 h 4.18663 v 4.18664 h -4.18663 z m 4.93425,0 h 4.18664 v 4.18664 h -4.18664 z m -29.68028,4.93426 h 4.18664 v 4.18663 h -4.18664 z m 4.93425,0 h 4.18664 v 4.18663 h -4.18664 z m 19.81178,0 h 4.18663 v 4.18663 h -4.18663 z m 4.93425,0 h 4.18664 v 4.18663 h -4.18664 z" />
  </g>
  <g
     transform="translate(1.2996)"
     style="font-size:47.5484px;line-height:1.25;font-family:Arcade;-inkscape-font-specification:Arcade;letter-spacing:0px;word-spacing:0px;writing-mode:lr-tb;fill:#000000;stroke-width:2.22884"
     id="text1004-4-8-4-7-0-1"
     aria-label="H">
    <path
       id="path1557"
       style="font-style:normal;font-variant:normal;font-weight:normal;font-stretch:normal;font-family:'Karma Future';-inkscape-font-specification:'Karma Future';stroke-width:2.22884"
       d="m 316.5518,216.30472 0.80832,4.04162 v 40.60633 h -8.51116 l -0.95097,-4.61219 h -0.14265 v -10.79349 h -7.03716 v 15.40568 h -8.51116 l -0.95097,-4.61219 h -0.14265 v -40.89163 h 8.79646 v 0.85587 l 0.80832,4.04162 v 10.5082 h 7.03716 v -15.40569 h 8.79646 z m -2.37742,1.52155 h -4.04162 v 15.40569 h -12.60032 v -15.40569 h -4.04162 v 36.13679 h 4.04162 v -15.40568 h 12.60032 v 15.40568 h 4.04162 z" />
  </g>
  <path
     d="m 290.10243,323.2103 -0.49583,-37.81707 32.99846,18.47913 z"
     inkscape:transform-center-y="0.14312412"
     inkscape:transform-center-x="-5.3344582"
     style="opacity:1;fill:#000000;fill-opacity:1;stroke:#000000;stroke-width:2.43511;stroke-miterlimit:4;stroke-dasharray:none;stroke-opacity:1"
     id="path1554" />
</svg>
