<?xml version="1.0" encoding="UTF-8" standalone="no"?>
<svg
   xmlns:dc="http://purl.org/dc/elements/1.1/"
   xmlns:cc="http://creativecommons.org/ns#"
   xmlns:rdf="http://www.w3.org/1999/02/22-rdf-syntax-ns#"
   xmlns:svg="http://www.w3.org/2000/svg"
   xmlns="http://www.w3.org/2000/svg"
   xmlns:sodipodi="http://sodipodi.sourceforge.net/DTD/sodipodi-0.dtd"
   xmlns:inkscape="http://www.inkscape.org/namespaces/inkscape"
   inkscape:version="1.0.1 (3bc2e813f5, 2020-09-07)"
   sodipodi:docname="1st Movement 1.svg"
   id="svg6"
   version="1.1"
   fill="none"
   viewBox="0.0 0.0 348.0 348.0">
  <metadata
     id="metadata12">
    <rdf:RDF>
      <cc:Work
         rdf:about="">
        <dc:format>image/svg+xml</dc:format>
        <dc:type
           rdf:resource="http://purl.org/dc/dcmitype/StillImage" />
      </cc:Work>
    </rdf:RDF>
  </metadata>
  <defs
     id="defs10" />
  <sodipodi:namedview
     inkscape:current-layer="svg6"
     inkscape:window-maximized="1"
     inkscape:window-y="-8"
     inkscape:window-x="-8"
     inkscape:cy="174"
     inkscape:cx="53.514385"
     inkscape:zoom="1.5977011"
     showgrid="false"
     id="namedview8"
     inkscape:window-height="705"
     inkscape:window-width="1366"
     inkscape:pageshadow="2"
     inkscape:pageopacity="0"
     guidetolerance="10"
     gridtolerance="10"
     objecttolerance="10"
     borderopacity="1"
     bordercolor="#666666"
     pagecolor="#ffffff"
     inkscape:document-rotation="0" />
  <path
     id="path2"
     stroke="#000"
     stroke-width="2"
     d="M5.079 5.776h336.913v337.67H5.08z" />
  <path
     id="path4"
     stroke="#000"
     stroke-width="2"
     d="M282.734 40.554c0-8.376 6.966-15.165 15.56-15.165 4.126 0 8.084 1.597 11.001 4.441 2.918 2.844 4.558 6.702 4.558 10.724 0 8.376-6.966 15.165-15.56 15.165-8.593 0-15.559-6.79-15.559-15.165z" />
  <path
     d="M 17.967918,80.624466 H 63.358852 V 126.0154 H 17.967918 Z"
     style="opacity:1;fill:#000000;fill-opacity:1;stroke:#000000;stroke-width:1.84861;stroke-miterlimit:4;stroke-dasharray:none;stroke-opacity:1"
     id="rect14" />
  <path
     d="m 277.22308,276.82596 h 55.05361 v 55.05361 h -55.05361 z"
     style="opacity:1;fill:#ffffff;fill-opacity:1;stroke:#000000;stroke-width:2.24214;stroke-miterlimit:4;stroke-dasharray:none;stroke-opacity:1"
     id="rect14-2-3-7-0-3-5" />
  <path
     d="m 277.22308,211.77234 h 55.05361 v 55.05361 h -55.05361 z"
     style="opacity:1;fill:#ffffff;fill-opacity:1;stroke:#000000;stroke-width:2.24214;stroke-miterlimit:4;stroke-dasharray:none;stroke-opacity:1"
     id="rect14-2-3-7-0-3-5-9" />
  <path
     d="m 120.90002,80.624458 h 45.39093 v 45.390932 h -45.39093 z"
     style="opacity:1;fill:#000000;fill-opacity:1;stroke:#000000;stroke-width:1.84861;stroke-miterlimit:4;stroke-dasharray:none;stroke-opacity:1"
     id="rect14-28" />
  <path
     d="m 172.36609,80.624451 h 45.39093 v 45.390929 h -45.39093 z"
     style="opacity:1;fill:#000000;fill-opacity:1;stroke:#000000;stroke-width:1.84861;stroke-miterlimit:4;stroke-dasharray:none;stroke-opacity:1"
     id="rect14-2-2" />
  <path
     d="m 223.83214,80.624443 h 45.39093 v 45.390937 h -45.39093 z"
     style="opacity:1;fill:#ffffff;fill-opacity:1;stroke:#000000;stroke-width:1.84861;stroke-miterlimit:4;stroke-dasharray:none;stroke-opacity:1"
     id="rect14-2-2-7" />
  <path
     d="m 17.967918,132.09053 h 45.390934 v 45.39093 H 17.967918 Z"
     style="opacity:1;fill:#000000;fill-opacity:1;stroke:#000000;stroke-width:1.84861;stroke-miterlimit:4;stroke-dasharray:none;stroke-opacity:1"
     id="rect14-3" />
  <path
     d="m 120.90002,132.09052 h 45.39093 v 45.39093 h -45.39093 z"
     style="opacity:1;fill:#ffffff;fill-opacity:1;stroke:#000000;stroke-width:1.84861;stroke-miterlimit:4;stroke-dasharray:none;stroke-opacity:1"
     id="rect14-28-7" />
  <path
     d="m 172.36609,132.09052 h 45.39093 v 45.39093 h -45.39093 z"
     style="opacity:1;fill:#ffffff;fill-opacity:1;stroke:#000000;stroke-width:1.84861;stroke-miterlimit:4;stroke-dasharray:none;stroke-opacity:1"
     id="rect14-2-2-4" />
  <path
     d="m 223.83214,132.0905 h 45.39093 v 45.39093 h -45.39093 z"
     style="opacity:1;fill:#000000;fill-opacity:1;stroke:#000000;stroke-width:1.84861;stroke-miterlimit:4;stroke-dasharray:none;stroke-opacity:1"
     id="rect14-2-2-7-5" />
  <path
     d="M 17.967918,183.55656 H 63.358852 V 228.9475 H 17.967918 Z"
     style="opacity:1;fill:#000000;fill-opacity:1;stroke:#000000;stroke-width:1.84861;stroke-miterlimit:4;stroke-dasharray:none;stroke-opacity:1"
     id="rect14-5" />
  <path
     d="M 69.433968,183.55656 H 114.8249 V 228.9475 H 69.433968 Z"
     style="opacity:1;fill:#000000;fill-opacity:1;stroke:#000000;stroke-width:1.84861;stroke-miterlimit:4;stroke-dasharray:none;stroke-opacity:1"
     id="rect14-2-4" />
  <path
     d="m 120.90002,183.55656 h 45.39093 v 45.39094 h -45.39093 z"
     style="opacity:1;fill:#000000;fill-opacity:1;stroke:#000000;stroke-width:1.84861;stroke-miterlimit:4;stroke-dasharray:none;stroke-opacity:1"
     id="rect14-28-72" />
  <path
     d="m 172.36609,183.55655 h 45.39093 v 45.39093 h -45.39093 z"
     style="opacity:1;fill:#000000;fill-opacity:1;stroke:#000000;stroke-width:1.84861;stroke-miterlimit:4;stroke-dasharray:none;stroke-opacity:1"
     id="rect14-2-2-8" />
  <path
     d="m 223.83214,183.55655 h 45.39093 v 45.39093 h -45.39093 z"
     style="opacity:1;fill:#000000;fill-opacity:1;stroke:#000000;stroke-width:1.84861;stroke-miterlimit:4;stroke-dasharray:none;stroke-opacity:1"
     id="rect14-2-2-7-4" />
  <path
     d="m 17.967915,235.02263 h 45.390934 v 45.39093 H 17.967915 Z"
     style="opacity:1;fill:#000000;fill-opacity:1;stroke:#000000;stroke-width:1.84861;stroke-miterlimit:4;stroke-dasharray:none;stroke-opacity:1"
     id="rect14-3-5" />
  <path
     d="M 69.433968,235.02261 H 114.8249 v 45.39094 H 69.433968 Z"
     style="opacity:1;fill:#ffffff;fill-opacity:1;stroke:#000000;stroke-width:1.84861;stroke-miterlimit:4;stroke-dasharray:none;stroke-opacity:1"
     id="rect14-2-1-7" />
  <path
     d="m 120.90002,235.02261 h 45.39093 v 45.39094 h -45.39093 z"
     style="opacity:1;fill:#ffffff;fill-opacity:1;stroke:#000000;stroke-width:1.84861;stroke-miterlimit:4;stroke-dasharray:none;stroke-opacity:1"
     id="rect14-28-7-8" />
  <path
     d="m 172.36609,235.02261 h 45.39093 v 45.39094 h -45.39093 z"
     style="opacity:1;fill:#ffffff;fill-opacity:1;stroke:#000000;stroke-width:1.84861;stroke-miterlimit:4;stroke-dasharray:none;stroke-opacity:1"
     id="rect14-2-2-4-2" />
  <path
     d="m 223.83214,235.0226 h 45.39093 v 45.39093 h -45.39093 z"
     style="opacity:1;fill:#000000;fill-opacity:1;stroke:#000000;stroke-width:1.84861;stroke-miterlimit:4;stroke-dasharray:none;stroke-opacity:1"
     id="rect14-2-2-7-5-5" />
  <path
     d="m 17.967915,286.48865 h 45.390934 v 45.39093 H 17.967915 Z"
     style="opacity:1;fill:#000000;fill-opacity:1;stroke:#000000;stroke-width:1.84861;stroke-miterlimit:4;stroke-dasharray:none;stroke-opacity:1"
     id="rect14-5-5" />
  <path
     d="M 69.433968,286.48865 H 114.8249 v 45.39093 H 69.433968 Z"
     style="opacity:1;fill:#000000;fill-opacity:1;stroke:#000000;stroke-width:1.84861;stroke-miterlimit:4;stroke-dasharray:none;stroke-opacity:1"
     id="rect14-2-4-9" />
  <path
     d="m 120.90002,286.48865 h 45.39093 v 45.39093 h -45.39093 z"
     style="opacity:1;fill:#000000;fill-opacity:1;stroke:#000000;stroke-width:1.84861;stroke-miterlimit:4;stroke-dasharray:none;stroke-opacity:1"
     id="rect14-28-72-7" />
  <path
     d="m 172.36609,286.48865 h 45.39093 v 45.39093 h -45.39093 z"
     style="opacity:1;fill:#000000;fill-opacity:1;stroke:#000000;stroke-width:1.84861;stroke-miterlimit:4;stroke-dasharray:none;stroke-opacity:1"
     id="rect14-2-2-8-3" />
  <path
     d="m 223.83214,286.48865 h 45.39093 v 45.39093 h -45.39093 z"
     style="opacity:1;fill:#ffffff;fill-opacity:1;stroke:#000000;stroke-width:1.84861;stroke-miterlimit:4;stroke-dasharray:none;stroke-opacity:1"
     id="rect14-2-2-7-4-3" />
  <g
     transform="translate(1.2996)"
     style="font-size:47.5484px;line-height:1.25;font-family:Arcade;-inkscape-font-specification:Arcade;letter-spacing:0px;word-spacing:0px;writing-mode:lr-tb;fill:#000000;stroke-width:2.22884"
     id="text1004-4-8-4-7-0-1"
     aria-label="H" />
  <path
     d="m 290.10243,323.2103 -0.49583,-37.81707 32.99846,18.47913 z"
     inkscape:transform-center-y="0.14312412"
     inkscape:transform-center-x="-5.3344582"
     style="opacity:1;fill:#000000;fill-opacity:1;stroke:#000000;stroke-width:2.43511;stroke-miterlimit:4;stroke-dasharray:none;stroke-opacity:1"
     id="path1554" />
  <g
     aria-label="C"
     id="text90"
     style="font-size:42.4891px;line-height:1.25;font-family:'Karma Future';-inkscape-font-specification:'Karma Future';letter-spacing:0px;word-spacing:0px;writing-mode:lr-tb;fill:#000000;stroke-width:1.99168">
    <path
       d="m 315.36056,223.32194 0.72231,3.61157 v 8.37036 h -7.94546 l -0.46738,-2.29441 h -1.23218 l -0.42489,-2.16695 h -1.14721 v 2.16695 h -1.74205 v 2.29441 h -1.82703 v 5.65105 h 1.10471 v 0.7648 l 0.29743,1.61459 h 1.44463 v 0.7648 l 0.25493,1.40214 h 1.06223 v -2.16694 h 1.69956 v -2.37939 h 8.2004 v 0.7648 l 0.72231,3.61158 v 8.45533 l -1.86952,0.12746 v 2.29442 h -1.91201 v 2.29441 h -13.34157 l -0.46738,-2.29441 h -1.31717 l -0.46738,-2.33691 -1.31716,-0.085 -0.84978,-4.07896 -0.12747,-0.0425 v -0.42489 l -0.84978,-0.12746 -0.80729,-4.07896 -0.16996,-0.0425 v -17.97289 h 1.82703 v -4.46135 l 1.78454,-0.085 v -2.3369 h 1.78455 v -2.29441 h 13.59651 v 0.7648 l 0.29742,1.52961 h 1.61459 v 0.7648 l 0.29742,1.61459 1.5721,0.0425 z m -2.12446,1.23218 -1.86952,-0.12746 v -2.16695 h -1.91201 v -2.29441 h -9.3476 v 2.29441 h -1.78454 v 2.16695 l -1.78454,0.12746 v 4.58883 h -1.82703 v 13.93642 l 1.82703,0.21245 v 4.37638 l 1.78454,0.12746 v 2.16695 h 1.78454 v 2.29441 h 9.3476 v -2.29441 h 1.91201 v -2.16695 l 1.86952,-0.12746 v -4.58883 h -3.95148 v 2.37939 h -1.69957 v 2.16695 h -5.56607 v -2.16695 h -1.74205 v -2.37939 h -1.82703 v -14.0214 h 1.82703 v -2.29441 h 1.74205 v -2.16695 h 5.56607 v 2.16695 h 1.69957 v 2.29441 h 3.95148 z"
       style="stroke-width:1.99168"
       id="path39" />
  </g>
  <path
     d="M 69.358852,80.624472 H 114.74978 V 126.0154 H 69.358852 Z"
     style="opacity:1;fill:#000000;fill-opacity:1;stroke:#000000;stroke-width:1.84861;stroke-miterlimit:4;stroke-dasharray:none;stroke-opacity:1"
     id="rect14-2" />
  <path
     d="m 69.358846,132.0154 h 45.390934 v 45.39093 H 69.358846 Z"
     style="opacity:1;fill:#ffffff;fill-opacity:1;stroke:#000000;stroke-width:1.84861;stroke-miterlimit:4;stroke-dasharray:none;stroke-opacity:1"
     id="rect14-2-27" />
</svg>
